<svg width="194" height="194" viewBox="0 0 194 194" fill="none" xmlns="http://www.w3.org/2000/svg">
<rect width="194" height="194" rx="38" fill="url(#paint0_radial_109_242)"/>
<rect width="194" height="194" rx="38" fill="url(#paint1_radial_109_242)" fill-opacity="0.5"/>
<g opacity="0.5">
<path d="M111 32.25C124.348 32.25 133.83 32.2611 141.024 33.2283C148.066 34.1752 152.124 35.9508 155.087 38.9133C158.496 42.3233 159.981 44.9666 160.803 49.6789C161.73 54.9902 161.75 62.5664 161.75 76C161.75 78.8995 164.101 81.25 167 81.25C169.899 81.25 172.25 78.8995 172.25 76V75.3258C172.251 62.7315 172.251 54.2 171.147 47.8739C169.919 40.8365 167.302 36.2798 162.512 31.4887C157.273 26.2502 150.63 23.9253 142.423 22.822C134.449 21.7498 124.259 21.7499 111.395 21.75H111C108.101 21.75 105.75 24.1005 105.75 27C105.75 29.8995 108.101 32.25 111 32.25Z" fill="#848392"/>
<path d="M27.0001 112.75C29.8996 112.75 32.2501 115.101 32.2501 118C32.2501 131.434 32.2702 139.01 33.197 144.321C34.0193 149.033 35.5034 151.677 38.9134 155.087C41.8759 158.049 45.9333 159.825 52.976 160.771C60.1697 161.739 69.6523 161.75 83 161.75C85.8994 161.75 88.25 164.101 88.25 167C88.25 169.899 85.8994 172.25 83 172.25H82.6051C69.7408 172.25 59.5514 172.25 51.5769 171.178C43.3699 170.074 36.7273 167.75 31.4888 162.512C26.6977 157.72 24.0813 153.163 22.8534 146.126C21.7495 139.8 21.7497 131.268 21.75 118.675L21.7501 118C21.7501 115.101 24.1005 112.75 27.0001 112.75Z" fill="#848392"/>
<path d="M167 112.75C169.899 112.75 172.25 115.101 172.25 118V118.674C172.251 131.268 172.251 139.8 171.147 146.126C169.919 153.163 167.302 157.72 162.512 162.512C157.273 167.75 150.63 170.074 142.423 171.178C134.449 172.25 124.259 172.25 111.395 172.25H111C108.101 172.25 105.75 169.899 105.75 167C105.75 164.101 108.101 161.75 111 161.75C124.348 161.75 133.83 161.739 141.024 160.771C148.066 159.825 152.124 158.049 155.087 155.087C158.496 151.677 159.981 149.033 160.803 144.321C161.73 139.01 161.75 131.434 161.75 118C161.75 115.101 164.101 112.75 167 112.75Z" fill="#848392"/>
<path d="M82.6051 21.75H83C85.8994 21.75 88.25 24.1005 88.25 27C88.25 29.8995 85.8994 32.25 83 32.25C69.6523 32.25 60.1697 32.2611 52.976 33.2283C45.9333 34.1752 41.8759 35.9508 38.9134 38.9133C35.5034 42.3233 34.0193 44.9666 33.197 49.6789C32.2702 54.9902 32.2501 62.5664 32.2501 76C32.2501 78.8995 29.8996 81.25 27.0001 81.25C24.1005 81.25 21.7501 78.8995 21.7501 76L21.75 75.3258C21.7497 62.7317 21.7495 54.1999 22.8534 47.8739C24.0813 40.8365 26.6977 36.2798 31.4888 31.4887C36.7273 26.2502 43.3699 23.9253 51.5769 22.822C59.5513 21.7498 69.7409 21.7499 82.6051 21.75Z" fill="#848392"/>
</g>
<path d="M97 88.25C92.1672 88.25 88.25 92.1672 88.25 97C88.25 101.833 92.1672 105.75 97 105.75C101.833 105.75 105.75 101.833 105.75 97C105.75 92.1672 101.833 88.25 97 88.25Z" fill="white"/>
<path fill-rule="evenodd" clip-rule="evenodd" d="M54.247 111.419C50.0823 106.588 48 104.172 48 97C48 89.8278 50.0824 87.4121 54.2469 82.5815C62.5626 72.9355 76.5088 62 97 62C117.491 62 131.437 72.9355 139.753 82.5815C143.917 87.4121 146 89.8278 146 97C146 104.172 143.917 106.588 139.753 111.419C131.437 121.065 117.491 132 97 132C76.5088 132 62.5627 121.065 54.247 111.419ZM77.75 97C77.75 86.3684 86.3684 77.75 97 77.75C107.632 77.75 116.25 86.3684 116.25 97C116.25 107.632 107.632 116.25 97 116.25C86.3684 116.25 77.75 107.632 77.75 97Z" fill="white"/>
<circle cx="142" cy="53" r="8" fill="#DE0E2A"/>
<defs>
<radialGradient id="paint0_radial_109_242" cx="0" cy="0" r="1" gradientUnits="userSpaceOnUse" gradientTransform="translate(141.5 53.5) rotate(145.582) scale(32.73)">
<stop stop-color="#511F24"/>
<stop offset="1" stop-color="#101010"/>
</radialGradient>
<radialGradient id="paint1_radial_109_242" cx="0" cy="0" r="1" gradientUnits="userSpaceOnUse" gradientTransform="translate(97 97) rotate(90) scale(97)">
<stop stop-color="#4D4F56"/>
<stop offset="1" stop-color="#222226"/>
</radialGradient>
</defs>
</svg>
